<svg width="188" height="110" viewBox="0 0 188 110" fill="none" xmlns="http://www.w3.org/2000/svg">
<g clip-path="url(#clip0_9656_3191)">
<path d="M54.9978 107.909C84.2178 107.909 107.906 84.2208 107.906 54.9998C107.906 25.7788 84.2188 2.0918 54.9978 2.0918C25.7768 2.0918 2.08984 25.7798 2.08984 54.9998C2.08984 84.2198 25.7778 107.909 54.9978 107.909Z" fill="#D8F2FB"/>
<path d="M55 -0.000206775C53.386 -0.000206775 51.788 0.0687932 50.207 0.206793C37.231 1.35979 25.083 7.07379 15.92 16.3348C6.757 25.5958 1.173 37.8048 0.159 50.7918C0.054 52.1808 0 53.5838 0 54.9998C0 56.1878 0.202 59.7938 0.259 60.3898C1.567 73.3508 7.42 85.4298 16.782 94.4888C26.143 103.548 38.408 109.001 51.405 109.884C52.611 109.961 53.81 109.999 55 109.999C56.385 109.999 57.757 109.948 59.116 109.846C72.075 108.856 84.266 103.316 93.535 94.2058C102.804 85.0958 108.554 73.0018 109.768 60.0618C109.92 58.3948 109.997 56.7068 109.999 54.9988C109.999 53.8108 109.827 50.5858 109.792 50.1778C108.788 39.1478 104.492 28.6738 97.462 20.1158C90.432 11.5578 80.991 5.30979 70.366 2.18279C65.379 0.707793 60.201 -0.0282068 55 -0.000206775ZM79.901 82.2888C82.205 74.0918 83.424 65.6278 83.527 57.1138H105.711C105.245 68.5108 100.935 79.4148 93.484 88.0518C90.175 85.7338 85.548 83.7728 79.901 82.2888ZM16.511 88.0518C9.059 79.4148 4.75 68.5108 4.283 57.1138H26.468C26.569 65.6278 27.788 74.0918 30.093 82.2888C24.446 83.7738 19.819 85.7348 16.511 88.0538V88.0518ZM30.084 27.7448C27.785 35.9298 26.569 44.3818 26.467 52.8828H4.283C4.749 41.5398 9.02 30.6838 16.41 22.0658C19.774 24.3468 24.433 26.2788 30.084 27.7448ZM52.882 52.8828H30.697C30.825 44.7038 32.04 36.5778 34.309 28.7178C40.43 29.9128 46.647 30.5578 52.883 30.6458V52.8818L52.882 52.8828ZM52.882 57.1138V79.3528C46.647 79.4398 40.433 80.0938 34.317 81.3058C32.043 73.4388 30.826 65.3038 30.698 57.1148H52.882V57.1138ZM57.113 57.1138H79.298C79.17 65.3018 77.953 73.4368 75.679 81.3048C69.562 80.0928 63.349 79.4398 57.114 79.3518L57.113 57.1138ZM57.113 52.8828V30.6448C63.35 30.5578 69.567 29.9128 75.69 28.7178C77.959 36.5778 79.173 44.7048 79.301 52.8848L57.113 52.8828ZM57.113 26.4148V4.44479C64.061 5.76379 70.277 13.4788 74.353 24.6758C68.667 25.7488 62.899 26.3298 57.113 26.4148ZM52.882 4.44379V26.4148C47.096 26.3298 41.328 25.7478 35.642 24.6748C39.718 13.4798 45.935 5.76279 52.882 4.44479V4.44379ZM52.882 83.5798V105.551C45.938 104.234 39.726 96.5268 35.65 85.3428C41.332 84.2548 47.098 83.6668 52.882 83.5838V83.5798ZM57.113 105.55V83.5838C62.897 83.6678 68.663 84.2578 74.345 85.3468C70.269 96.5298 64.057 104.237 57.113 105.553V105.55ZM83.529 52.8798C83.426 44.3788 82.211 35.9278 79.913 27.7418C85.562 26.2748 90.223 24.3428 93.589 22.0608C100.978 30.6788 105.25 41.5348 105.716 52.8778L83.529 52.8798ZM90.663 18.9068C87.701 20.7818 83.558 22.4388 78.619 23.7058C75.964 16.2008 72.361 10.0928 68.118 5.95279C76.63 8.24279 84.4 12.7078 90.663 18.9108V18.9068ZM31.377 23.7068C26.439 22.4398 22.294 20.7838 19.333 18.9078C25.597 12.7058 33.368 8.24179 41.882 5.95579C37.635 10.0978 34.031 16.2058 31.377 23.7118V23.7068ZM19.438 91.1868C22.336 89.2838 26.448 87.6048 31.388 86.3218C34.04 93.8108 37.639 99.9038 41.879 104.037C33.416 101.763 25.686 97.3368 19.44 91.1908L19.438 91.1868ZM78.604 86.3218C83.542 87.6048 87.655 89.2838 90.554 91.1868C84.309 97.3358 76.577 101.763 68.113 104.037C72.354 99.9088 75.952 93.8148 78.606 86.3258L78.604 86.3218Z" fill="#BED0F4"/>
<mask id="mask0_9656_3191" style="mask-type:luminance" maskUnits="userSpaceOnUse" x="55" y="23" width="133" height="78">
<path d="M187.706 23.9678H55.187V100.229H187.706V23.9678Z" fill="white"/>
</mask>
<g mask="url(#mask0_9656_3191)">
<path d="M72.064 70.2237C75.171 70.2237 77.69 67.9847 77.69 65.2227C77.69 62.4607 75.171 60.2217 72.064 60.2217C68.957 60.2217 66.438 62.4607 66.438 65.2227C66.438 67.9847 68.957 70.2237 72.064 70.2237Z" fill="#DBA076"/>
<path d="M152.135 52.7217C128.657 52.7217 78.7249 60.9887 77.0659 61.1027V69.8847C77.0659 69.8847 126.687 73.0637 131.65 73.4767C132.033 77.4217 134.338 102.81 135.75 103.702C137.163 104.594 167.275 103.378 168.292 102.504C168.472 104.534 169.927 117.099 169.927 117.099C177.852 112.49 187.467 89.3397 187.467 86.6887C187.467 72.1837 174.111 56.0807 172.692 55.2847C171.273 54.4887 161.282 52.7217 152.135 52.7217Z" fill="#50A6B9"/>
<path d="M148.905 54.3639C148.905 55.8789 157.238 55.9919 157.238 54.3639V44.2349H148.905V54.3639Z" fill="#DBA076"/>
<path opacity="0.1" d="M157.238 49.692C157.238 48.876 155.178 46.074 153.586 46.549C155.55 45.923 156.519 43.795 157.238 44.232V49.692Z" fill="black"/>
<path opacity="0.1" d="M168.569 102.176C168.916 99.8419 170.233 80.3139 169.359 73.8369Z" fill="black"/>
<path d="M149.369 47.6567C143.391 47.6567 138.545 42.8107 138.545 36.8337C138.545 30.8567 143.391 26.0107 149.369 26.0107C155.347 26.0107 160.192 30.8567 160.192 36.8337C160.192 42.8107 155.346 47.6567 149.369 47.6567Z" fill="#DBA076"/>
<path opacity="0.9" d="M142.834 36.3379C142.499 36.8169 140.763 38.8399 142.595 39.6599" stroke="#00333F" stroke-width="0.625" stroke-miterlimit="10" stroke-linecap="round"/>
<path opacity="0.9" d="M146.234 42.053C146.773 42.053 147.611 41.377 148.03 40.772" stroke="#00333F" stroke-width="0.625" stroke-miterlimit="10" stroke-linecap="round"/>
<path d="M159.715 30.5228C159.715 26.7698 154.477 23.9678 150.832 23.9678C146.096 24.0448 141.385 24.6568 136.788 25.7938C134.83 26.4768 134.519 28.5598 134.519 29.2598C134.519 32.1808 135.584 34.0008 138.805 34.4678C139.027 33.4358 139.411 32.4458 139.942 31.5348C140.839 31.1888 141.83 31.1718 142.738 31.4868C143.558 31.7738 150.431 35.0068 155.507 35.0068C156.189 35.9588 157.674 41.7838 157.237 44.2378C158.728 44.3218 161.469 39.4788 161.607 36.9408C161.639 36.0728 161.467 35.2088 161.105 34.4188C160.744 33.6288 160.202 32.9348 159.524 32.3908C159.578 31.8758 159.715 30.8228 159.715 30.5228Z" fill="#00333F"/>
<path d="M154.683 37.348C154.683 38.058 155.258 38.634 155.969 38.634C156.68 38.634 157.254 38.058 157.254 37.348C157.254 36.638 156.679 36.062 155.969 36.062C155.259 36.062 154.683 36.638 154.683 37.348Z" fill="#DBA076" stroke="#DBA076" stroke-width="2.193"/>
<path opacity="0.1" d="M131.926 73.1797H140.158C140.158 73.1797 132.489 79.4717 133.07 84.7097C132.771 81.8067 131.926 73.1797 131.926 73.1797Z" fill="black"/>
</g>
<path d="M71.482 13.3408H71.48C61.428 13.3408 53.311 21.4658 53.311 31.4878C53.311 34.6388 54.507 38.1888 55.528 40.1868C58.878 46.7518 71.278 65.1078 71.278 65.1078C71.299 65.1428 71.329 65.1718 71.364 65.1918C71.4 65.2118 71.44 65.2228 71.481 65.2228C71.522 65.2228 71.562 65.2118 71.598 65.1918C71.633 65.1718 71.663 65.1428 71.684 65.1078C71.684 65.1078 84.084 46.7518 87.434 40.1868C88.454 38.1878 89.651 34.6388 89.651 31.4878C89.651 21.4658 81.534 13.3408 71.482 13.3408ZM71.738 40.1448C69.159 40.1748 66.672 39.1858 64.82 37.3928C62.967 35.5998 61.899 33.1488 61.848 30.5728C61.796 27.9968 62.766 25.5048 64.545 23.6408C66.324 21.7758 68.77 20.6888 71.348 20.6158C71.432 20.6138 71.515 20.6158 71.599 20.6158C72.895 20.6158 74.177 20.8728 75.372 21.3728C76.567 21.8728 77.651 22.6038 78.561 23.5258C79.471 24.4478 80.188 25.5398 80.671 26.7408C81.154 27.9418 81.393 29.2258 81.375 30.5198C81.301 35.7788 77.004 40.0718 71.738 40.1448Z" fill="#047993"/>
<path opacity="0.25" d="M71.3481 20.6161C71.4321 20.6141 71.5151 20.6161 71.5991 20.6161C72.8951 20.6161 74.1771 20.8731 75.3721 21.3731C76.5671 21.8731 77.6511 22.6041 78.5611 23.5261C79.4711 24.4481 80.1881 25.5401 80.6711 26.7411C81.1541 27.9421 81.3931 29.2271 81.3751 30.5201C81.3011 35.7791 77.0041 40.0721 71.7391 40.1451C69.1601 40.1751 66.6731 39.1861 64.8211 37.3941C62.9681 35.6011 61.9001 33.1501 61.8491 30.5741C61.7981 27.9981 62.7671 25.5071 64.5471 23.6421C66.3261 21.7771 68.7721 20.6901 71.3501 20.6171L71.3481 20.6161Z" fill="white"/>
</g>
<defs>
<clipPath id="clip0_9656_3191">
<rect width="188" height="110" fill="white"/>
</clipPath>
</defs>
</svg>
